<mxfile host="Electron" agent="Mozilla/5.0 (Windows NT 10.0; Win64; x64) AppleWebKit/537.36 (KHTML, like Gecko) draw.io/26.2.2 Chrome/134.0.6998.178 Electron/35.1.2 Safari/537.36" version="26.2.2">
  <diagram name="Page-1" id="KwgCvmkw6PC3UR_nT41j">
    <mxGraphModel dx="1073" dy="630" grid="1" gridSize="10" guides="1" tooltips="1" connect="1" arrows="1" fold="1" page="1" pageScale="1" pageWidth="850" pageHeight="1100" math="0" shadow="0">
      <root>
        <mxCell id="0" />
        <mxCell id="1" parent="0" />
        <mxCell id="kheagEcuRf-5mv-iuajZ-1" value="" style="rounded=0;whiteSpace=wrap;html=1;" vertex="1" parent="1">
          <mxGeometry x="120" y="300" width="600" height="260" as="geometry" />
        </mxCell>
        <mxCell id="kheagEcuRf-5mv-iuajZ-5" value="" style="rounded=0;whiteSpace=wrap;html=1;" vertex="1" parent="1">
          <mxGeometry x="120" y="300" width="600" height="60" as="geometry" />
        </mxCell>
        <mxCell id="kheagEcuRf-5mv-iuajZ-3" value="&lt;font style=&quot;font-size: 32px;&quot;&gt;Menu&lt;/font&gt;" style="text;html=1;align=center;verticalAlign=middle;whiteSpace=wrap;rounded=0;" vertex="1" parent="1">
          <mxGeometry x="290" y="282.5" width="295" height="95" as="geometry" />
        </mxCell>
        <mxCell id="kheagEcuRf-5mv-iuajZ-35" value="&lt;span style=&quot;font-size: 27px;&quot;&gt;&amp;gt; Navigation Mode&lt;/span&gt;" style="text;html=1;align=center;verticalAlign=middle;whiteSpace=wrap;rounded=0;fontStyle=0" vertex="1" parent="1">
          <mxGeometry x="114" y="360" width="260" height="70" as="geometry" />
        </mxCell>
        <mxCell id="kheagEcuRf-5mv-iuajZ-56" value="&lt;span style=&quot;font-size: 27px;&quot;&gt;Location Mode&lt;/span&gt;" style="text;html=1;align=center;verticalAlign=middle;whiteSpace=wrap;rounded=0;fontStyle=0" vertex="1" parent="1">
          <mxGeometry x="92" y="403" width="260" height="70" as="geometry" />
        </mxCell>
        <mxCell id="kheagEcuRf-5mv-iuajZ-57" value="&lt;span style=&quot;font-size: 27px;&quot;&gt;Info Mode&lt;/span&gt;" style="text;html=1;align=center;verticalAlign=middle;whiteSpace=wrap;rounded=0;fontStyle=0" vertex="1" parent="1">
          <mxGeometry x="92" y="444" width="202" height="70" as="geometry" />
        </mxCell>
        <mxCell id="kheagEcuRf-5mv-iuajZ-58" value="&lt;span style=&quot;font-size: 27px;&quot;&gt;Logs Mode&lt;/span&gt;" style="text;html=1;align=center;verticalAlign=middle;whiteSpace=wrap;rounded=0;fontStyle=0" vertex="1" parent="1">
          <mxGeometry x="90" y="486" width="222" height="70" as="geometry" />
        </mxCell>
      </root>
    </mxGraphModel>
  </diagram>
</mxfile>
